# xmcd
#
# Track frame offsets:
#	150
#	16594
#	28697
#	41162
#	55455
#	72694
#	90322
#	105440
#	118550
#	134307
#	146637
#	160064
#	173530
#
# Disc length: 2545 seconds
#
# Revision: 0
# Processed by: cddbd v1.5.2PL0 Copyright (c) Steve Scherf et al.
# Submitted via: EasyCDDAExtractor 12.0.4.1
#
DISCID=a709ef0d
DTITLE=Various Artist - Batidão Sertanejo CD 3
DYEAR=2009
DGENRE=Sertanejo
TTITLE0=Luan Santana - Meteoro
TTITLE1=Hugo Pena and Gabriel - Robin Hood Da Paixão
TTITLE2=Michel Teló - Ei, Psiu Beijo Me liga
TTITLE3=João Bosco and Vinícius - Sufoco
TTITLE4=Alan and Alex - Amor Verdadeiro
TTITLE5=Pedro Paulo and Matheus - Saudade
TTITLE6=João paulo and Eduardo - Promessa
TTITLE7=Guilherme and Santiago - O Amor é Assim
TTITLE8=Léo and Gabriel - Sob a Lua e os Olhares
TTITLE9=Fabrício and Fabian - Bateu Ficou
TTITLE10=Marco and Mário - Marvada Pinga
TTITLE11=Roger and Robson - Você Não Vale Nada
TTITLE12=Tonny and Kleber - Largado Demais ( A Dona do Meu Coração)
EXTD=
EXTT0=
EXTT1=
EXTT2=
EXTT3=
EXTT4=
EXTT5=
EXTT6=
EXTT7=
EXTT8=
EXTT9=
EXTT10=
EXTT11=
EXTT12=
PLAYORDER=
